<svg
    xmlns="http://www.w3.org/2000/svg"
    viewBox="0 0 24 24"
    fill="currentColor"
    class="w-5 h-5"
>
    <path d="M12 0.297c-6.627 0-12 5.373-12 12 0 5.303 3.438 9.8 8.205 11.387.6.113.82-.258.82-.577 
             0-.285-.01-1.04-.015-2.04-3.338.724-4.042-1.61-4.042-1.61-.546-1.387-1.333-1.756-1.333-1.756-1.089-.744.084-.729.084-.729 
             1.205.084 1.84 1.236 1.84 1.236 1.07 1.834 2.809 1.304 3.495.997.108-.775.418-1.304.76-1.604-2.665-.304-5.466-1.334-5.466-5.93 
             0-1.31.467-2.38 1.236-3.22-.124-.303-.536-1.524.116-3.176 0 0 1.008-.322 3.3 1.23a11.52 11.52 0 013.003-.403c1.02.005 
             2.047.138 3.003.403 2.29-1.552 3.296-1.23 3.296-1.23.653 1.653.242 2.874.118 3.176.77.84 1.235 1.91 1.235 3.22 
             0 4.61-2.804 5.625-5.475 5.921.43.372.814 1.102.814 2.222 0 1.606-.015 2.896-.015 3.286 0 .321.216.694.825.576C20.565 
             22.092 24 17.592 24 12.297c0-6.627-5.373-12-12-12z"/>
</svg>
